<?xml version="1.0" encoding="UTF-8"?>
<svg width="512" height="512" viewBox="0 0 512 512" fill="none" xmlns="http://www.w3.org/2000/svg">
  <!-- Background Circle -->
  <circle cx="256" cy="256" r="248" fill="#3B82F6" />
  <circle cx="256" cy="256" r="240" fill="#2563EB" />
  
  <!-- Document Shape -->
  <path d="M176 128h160c8.837 0 16 7.163 16 16v224c0 8.837-7.163 16-16 16H176c-8.837 0-16-7.163-16-16V144c0-8.837 7.163-16 16-16z" fill="white"/>
  
  <!-- Lines representing text -->
  <rect x="192" y="176" width="128" height="12" rx="6" fill="#93C5FD" />
  <rect x="192" y="208" width="96" height="12" rx="6" fill="#93C5FD" />
  <rect x="192" y="240" width="128" height="12" rx="6" fill="#93C5FD" />
  <rect x="192" y="272" width="64" height="12" rx="6" fill="#93C5FD" />
  
  <!-- CV Text -->
  <path d="M206 324h-24l36-72h24l36 72h-24l-24-48-24 48zm84 0v-72h20v72h-20z" fill="#1D4ED8"/>
</svg> 